PathFileType	4	(X/Y/Z)	D:\TRACE\v60_Jaco2_6-2-23\JustBodyDRS_Motion3_8-platform.trc
DataRate	CameraRate	NumFrames	NumMarkers	Units	OrigDataRate	OrigDataStartFrame	OrigNumFrames
100.00	100.00	      60	5	mm	100.00	2626	      7000
Frame#	Time	Left_Front			Right_Front			Left_Aft			Right_Aft			Post			
		X1	Y1	Z1	X2	Y2	Z2	X3	Y3	Z3	X4	Y4	Z4	X5	Y5	Z5	

2626	26.250	-790.86938	74.74029	-632.09625	779.48157	72.70674	-609.23358	-722.39764	-34.95561	496.61203	692.37292	-45.48534	601.47540	3.02531	1397.58044	-815.46973	
2627	26.260	-791.44434	74.69067	-632.01410	779.09912	72.54773	-609.26300	-722.84631	-34.86475	496.59540	691.94165	-45.36790	601.43713	2.57728	1397.51355	-815.81506	
2628	26.270	-791.75140	74.69102	-632.02521	778.67426	72.63409	-609.26715	-723.10938	-34.70306	496.61630	691.63623	-45.23850	601.45953	2.42825	1397.51758	-816.09259	
2629	26.280	-792.15588	74.78561	-631.94141	778.35797	72.56261	-609.32861	-723.45288	-34.62017	496.65402	691.35236	-45.20476	601.39722	2.33090	1397.40369	-816.22955	
2630	26.290	-792.46826	74.80122	-632.10535	778.01740	72.39689	-609.35126	-723.85516	-34.51130	496.60574	691.02936	-45.10114	601.42896	2.17164	1397.32092	-816.30737	
2631	26.300	-792.79126	74.70829	-632.42834	777.84583	72.30238	-609.41003	-724.26257	-34.19359	496.40784	690.71527	-45.08553	601.43958	1.90651	1397.24622	-816.38477	
2632	26.310	-793.11945	74.60537	-632.56671	777.68817	72.30042	-609.44135	-724.36389	-34.25327	496.40198	690.43091	-45.08978	601.48407	1.61342	1397.04907	-816.55823	
2633	26.320	-793.06335	74.24462	-632.10559	777.46503	72.13201	-609.50891	-724.68567	-34.13768	496.30295	690.00861	-44.97677	601.44843	1.24833	1396.80469	-816.76678	
2634	26.330	-793.28638	74.35010	-632.19586	777.10065	71.99318	-609.49664	-724.74854	-34.49105	496.65283	689.55688	-45.02340	601.47980	0.89333	1396.72510	-816.89655	
2635	26.340	-793.53540	74.40601	-632.33405	776.78168	71.96386	-609.52570	-725.27649	-34.12817	496.35535	689.30084	-44.95544	601.45087	0.66270	1396.67236	-817.02747	
2636	26.350	-794.01941	74.17351	-632.58826	776.45496	71.92857	-609.59393	-725.55383	-34.05531	496.34946	689.12897	-44.78178	601.37012	0.11241	1396.54468	-817.46503	
2637	26.360	-794.31311	73.89268	-632.67798	776.12885	71.76897	-609.65033	-725.83313	-33.96982	496.40219	688.93011	-44.66598	601.28503	-0.52165	1396.38000	-817.87500	
2638	26.370	-794.62488	73.76332	-632.75684	775.76282	71.60675	-609.74365	-726.13440	-33.83367	496.41940	688.46863	-44.55922	601.38464	-0.81676	1396.21228	-818.17737	
2639	26.380	-794.94159	73.50809	-632.64117	775.55652	71.43548	-609.77966	-726.37762	-33.79847	496.42911	688.30627	-44.32081	601.25067	-0.84672	1396.01941	-818.36823	
2640	26.390	-795.10553	73.83595	-632.38806	775.26422	71.25954	-609.84595	-726.51721	-33.68437	496.46054	688.07037	-44.29097	601.20483	-1.00678	1395.78418	-818.76923	
2641	26.400	-795.57471	73.92145	-632.24109	775.07861	71.10333	-609.91730	-726.62866	-33.72186	496.54196	687.98163	-44.15216	601.14844	-1.16636	1395.56384	-819.14526	
2642	26.410	-796.12561	73.66315	-632.51050	774.91119	70.87161	-610.01019	-727.00574	-33.46381	496.66797	687.71997	-44.22551	600.72162	-1.42510	1395.14478	-819.63861	
2643	26.420	-796.30060	73.30215	-632.93549	774.66614	70.72387	-610.08118	-727.53662	-32.89045	496.15048	687.38684	-44.14701	600.57135	-1.59931	1394.87659	-820.10498	
2644	26.430	-796.60632	73.05620	-633.17456	774.50525	70.53412	-610.07037	-727.75653	-32.79655	496.09058	687.21515	-43.63232	601.10541	-1.62270	1394.61719	-820.63336	
2645	26.440	-796.65411	72.84086	-633.21545	774.36658	70.33696	-610.14484	-727.89221	-32.74585	495.99484	687.12323	-43.38298	601.07025	-1.80180	1394.33618	-821.11823	
2646	26.450	-796.76227	72.59303	-633.31610	774.15729	70.10648	-610.22632	-728.05554	-32.56944	495.94904	686.70624	-43.21366	600.52679	-2.00529	1394.08899	-821.74078	
2647	26.460	-796.86493	72.34082	-633.47998	773.96246	69.83768	-610.36639	-728.14917	-32.37554	495.85611	686.55920	-42.92804	600.47742	-2.02314	1393.77771	-822.26300	
2648	26.470	-796.95251	71.95714	-633.43799	773.77441	69.51679	-610.52032	-728.39819	-32.25615	495.80051	686.45789	-42.77539	600.67279	-2.31357	1393.43140	-823.10449	
2649	26.480	-796.75964	71.33490	-632.83093	773.52295	69.17895	-610.69751	-728.65717	-32.07384	495.75497	686.40924	-42.44171	600.97668	-2.69015	1393.14087	-823.70831	
2650	26.490	-796.89026	71.05699	-632.95245	773.35956	68.92807	-610.76062	-728.85034	-31.82965	495.72260	686.29108	-42.21041	600.93469	-2.79514	1392.72974	-824.23187	
2651	26.500	-797.36334	70.73622	-633.58331	773.31873	68.71191	-610.77869	-728.94470	-31.52998	495.61069	686.22699	-42.02615	600.87457	-2.73444	1392.26587	-824.91107	
2652	26.510	-797.42236	70.48193	-633.79639	773.17224	68.38901	-610.84460	-728.83722	-31.04583	495.42279	685.80896	-42.15956	600.39764	-2.83244	1391.91748	-825.77661	
2653	26.520	-797.47577	70.24743	-633.85657	773.05829	68.05846	-610.97058	-728.76355	-31.12533	495.74686	685.60974	-41.77031	600.13751	-3.12454	1391.44397	-826.50781	
2654	26.530	-797.58337	70.08998	-633.88623	773.00885	67.65919	-611.15649	-728.76575	-30.95552	495.68057	685.82825	-41.04205	600.76624	-3.08588	1390.86084	-827.21991	
2655	26.540	-797.66608	69.79488	-634.03479	772.97522	67.21005	-611.30817	-728.75421	-30.79503	495.62595	685.80377	-40.72631	600.69629	-3.26602	1390.48193	-828.27185	
2656	26.550	-797.71674	69.33462	-634.24811	772.84265	66.73779	-611.36865	-728.81036	-30.54586	495.59122	685.78778	-40.37049	600.54144	-3.15620	1389.84448	-829.02161	
2657	26.560	-797.85199	68.95650	-634.60571	772.86157	66.39340	-611.46448	-728.98181	-30.30652	495.56860	685.81873	-39.88589	600.55524	-3.11297	1389.28955	-830.25378	
2658	26.570	-797.96423	68.50726	-634.40918	772.84888	66.10286	-611.64813	-729.14233	-29.94963	495.51529	685.80994	-39.54686	600.52606	-3.31343	1388.86938	-831.26617	
2659	26.580	-797.99512	68.01773	-634.46350	772.87335	65.60700	-611.79407	-729.04858	-29.61252	495.43427	685.66565	-39.20600	600.34741	-3.40997	1388.18933	-832.45892	
2660	26.590	-797.71014	67.26810	-634.67340	772.93030	64.98708	-611.95184	-729.05951	-29.16043	495.16876	685.54407	-39.02038	600.23071	-3.46222	1387.41064	-833.51086	
2661	26.600	-797.71857	66.75705	-634.87268	772.88770	64.62240	-612.03943	-728.95801	-28.84581	495.02612	685.56488	-38.51087	600.15491	-3.08669	1386.77258	-834.90240	
2662	26.610	-797.79114	66.37573	-635.05359	772.81256	64.31647	-612.21436	-728.79700	-28.49390	495.03110	685.74597	-37.89287	599.95972	-3.32029	1386.24634	-835.91846	
2663	26.620	-797.83624	65.94230	-635.24634	772.75531	63.63333	-612.40680	-728.78931	-28.10397	494.99829	685.75867	-37.66972	599.91858	-3.43514	1385.58838	-837.18152	
2664	26.630	-797.87646	65.31450	-635.48566	772.84369	63.00969	-612.63739	-728.96466	-27.62774	494.76627	685.55994	-37.22980	599.91522	-3.25155	1384.86267	-838.43457	
2665	26.640	-797.92188	64.55107	-635.80902	772.77289	62.45688	-612.91351	-729.09009	-27.22274	494.63950	685.55951	-36.49314	599.65668	-2.99681	1383.98010	-839.61639	
2666	26.650	-797.87152	64.06841	-636.05316	772.75812	61.83001	-613.10736	-729.18671	-26.81011	494.45721	685.43427	-36.17147	599.62518	-3.02867	1382.98340	-840.90271	
2667	26.660	-797.60522	63.21644	-635.82910	772.78210	61.16888	-613.32611	-729.04938	-26.29091	494.29932	685.55164	-35.71729	599.47479	-3.08627	1381.99097	-842.33716	
2668	26.670	-797.54626	62.58908	-636.24915	772.87506	60.67241	-613.50159	-728.79816	-25.91942	494.24490	685.72217	-34.97157	599.33173	-3.27212	1381.39050	-843.85156	
2669	26.680	-797.27527	61.87275	-636.61487	773.13629	60.00587	-613.67450	-728.63123	-25.55355	494.13293	686.00476	-34.41639	599.23492	-3.23256	1380.66968	-845.58691	
2670	26.690	-796.98956	61.03807	-637.20184	773.25848	59.23110	-613.86005	-728.43842	-24.97547	493.87112	686.16626	-33.97224	599.16364	-2.86601	1379.69763	-847.56616	
2671	26.700	-796.68884	60.77985	-636.90790	773.50458	58.57029	-614.05627	-728.59430	-24.29059	493.83047	686.28943	-33.61640	598.63977	-2.84030	1378.48804	-848.89923	
2672	26.710	-796.96893	60.32148	-637.68774	773.77551	57.91507	-614.21472	-728.27930	-23.96805	493.73639	686.47211	-32.78497	599.06812	-2.05498	1377.62158	-850.87616	
2673	26.720	-796.68738	59.18442	-637.52441	773.85822	57.24813	-614.49384	-727.92645	-23.55099	493.73245	686.74988	-32.25066	598.93237	-2.07310	1376.72058	-852.54779	
2674	26.730	-796.55029	58.49577	-637.64075	774.20673	56.49720	-614.75128	-727.83966	-23.05702	493.51636	686.44775	-31.88863	598.96240	-1.59272	1376.23315	-854.25751	
2675	26.740	-796.50745	58.00732	-637.85541	774.28619	55.84014	-614.92578	-727.68835	-22.23386	493.16632	686.93927	-30.94391	598.62329	-1.85967	1374.91382	-855.87848	
2676	26.750	-796.39880	57.02728	-638.25421	774.42950	55.00810	-615.24615	-727.61176	-21.45664	493.00992	687.32434	-30.28312	598.48090	-1.65404	1373.82043	-857.31195	
2677	26.760	-796.36694	56.15217	-638.52802	774.69635	54.22798	-615.46948	-727.44299	-20.91802	492.94937	687.43250	-29.68571	598.42010	-1.38209	1372.59705	-858.93640	
2678	26.770	-795.48322	55.38555	-638.79413	774.87738	53.29454	-615.82379	-727.09631	-20.42292	492.84348	687.56006	-29.09934	598.26801	-0.86753	1371.65088	-860.56488	
2679	26.780	-795.30219	54.35907	-638.97156	775.33337	52.46545	-616.01312	-726.65826	-19.90303	492.74219	688.15857	-28.24021	597.97687	-0.41385	1370.26794	-862.51941	
2680	26.790	-794.95844	53.60159	-639.16547	775.66095	51.70237	-616.27179	-726.37909	-19.17514	492.40552	688.32007	-27.44416	597.76361	-0.36634	1369.39307	-864.59875	
2681	26.800	-794.76782	52.73880	-639.48193	775.80127	50.73677	-616.61530	-726.24475	-18.76330	492.39722	688.52734	-27.03908	597.65656	-0.15640	1368.08252	-866.65106	
2682	26.810	-794.44867	51.78486	-639.75177	776.01044	49.93752	-616.77026	-726.08838	-18.14665	492.49997	688.70526	-26.12914	597.57330	0.03056	1367.01660	-868.75909	
2683	26.820	-794.09338	51.11289	-639.84528	776.36371	49.05989	-617.00262	-725.65588	-17.60518	492.24509	689.01343	-25.33172	597.34094	0.19554	1365.38623	-870.92499	
2684	26.830	-793.81079	50.10238	-639.82996	776.59943	48.17894	-617.22772	-725.33575	-17.09150	492.07553	688.81622	-25.59050	596.93073	0.83472	1364.59839	-873.44531	
2685	26.840	-793.44080	48.92394	-640.18188	776.98474	47.31154	-617.46844	-724.95782	-16.16011	491.54269	689.57874	-24.08921	596.56207	1.45464	1363.36938	-875.95111	
